# File created by Blade
# Date/Time:  Tue Apr 07 20:40:51 2015
#---------------------------------------------------------
:version 1.10
:name HOM
:units
  mass 1.0
  length 1.000000
  angle deg
:documentation
     Acclaim Skeleton File
:root
   axis xyz
   order TX TY TZ RX RY RZ
   position 0.000000 0.000000 0.000000
   orientation 0 0 0
:bonedata
   begin
      id 1
      name Spine_dum
      direction 0.000000 1.000000 0.000000
      length 4.885285
      axis 0.0 0.0 0.0 xyz
   end
   begin
      id 2
      name LeftUpLeg_dum
      direction 1.000000 0.000000 0.000000
      length 2.672193
      axis 0.0 0.0 0.0 xyz
   end
   begin
      id 3
      name RightUpLeg_dum
      direction -1.000000 0.000000 0.000000
      length 2.672193
      axis 0.0 0.0 0.0 xyz
   end
   begin
      id 4
      name Spine
      direction 0.000000 1.000000 0.000000
      length 0.000000
      axis 0.0 0.0 0.0 xyz
      dof rx ry rz
   end
   begin
      id 5
      name Spine_dum1
      direction 0.000000 1.000000 0.000000
      length 16.494159
      axis 0.0 0.0 0.0 xyz
   end
   begin
      id 6
      name Spine_dum2
      direction 0.000000 1.000000 0.000000
      length 10.663448
      axis 0.0 0.0 0.0 xyz
   end
   begin
      id 7
      name Spine_dum3
      direction 0.000000 1.000000 0.000000
      length 10.663448
      axis 0.0 0.0 0.0 xyz
   end
   begin
      id 8
      name Head
      direction 0.000000 1.000000 0.000000
      length 4.527550
      axis 0.0 0.0 0.0 xyz
      dof rx ry rz
   end
   begin
      id 9
      name LeftShoulder
      direction 1.000000 0.000000 0.000000
      length 7.531907
      axis 0.0 0.0 -90.0 xyz
      dof rx ry rz
   end
   begin
      id 10
      name LeftArm
      direction 1.000000 0.000000 0.000000
      length 10.229199
      axis 0.0 0.0 -90.0 xyz
      dof rx ry rz
   end
   begin
      id 11
      name LeftForeArm
      direction 1.000000 0.000000 0.000000
      length 8.673495
      axis 0.0 0.0 -90.0 xyz
      dof ry rz rx
   end
   begin
      id 12
      name LeftHand
      direction 0.000000 0.000000 0.000000
      length 0.000000
      axis 0.0 0.0 -90.0 xyz
      dof rx ry rz
   end
   begin
      id 13
      name LeftHand_dum1
      direction 0.000000 0.000000 0.000000
      length 0.000000
      axis 0.0 0.0 -90.0 xyz
   end
   begin
      id 14
      name LeftHand_dum2
      direction 1.000000 0.000000 0.000000
      length 3.937000
      axis 0.0 0.0 -90.0 xyz
   end
   begin
      id 15
      name LeftHandThumb1
      direction 0.000000 0.000000 1.000000
      length 3.937000
      axis 0.0 0.0 -90.0 xyz
      dof rx rz ry
   end
   begin
      id 16
      name RightShoulder
      direction -1.000000 0.000000 0.000000
      length 7.531907
      axis 0.0 0.0 90.0 xyz
      dof rx ry rz
   end
   begin
      id 17
      name RightArm
      direction -1.000000 0.000000 0.000000
      length 10.229199
      axis 0.0 0.0 90.0 xyz
      dof rx ry rz
   end
   begin
      id 18
      name RightForeArm
      direction -1.000000 0.000000 0.000000
      length 8.673495
      axis 0.0 0.0 90.0 xyz
      dof ry rz rx
   end
   begin
      id 19
      name RightHand
      direction 0.000000 0.000000 0.000000
      length 0.000000
      axis 0.0 0.0 90.0 xyz
      dof rx ry rz
   end
   begin
      id 20
      name RightHand_dum1
      direction 0.000000 0.000000 0.000000
      length 0.000000
      axis 0.0 0.0 90.0 xyz
   end
   begin
      id 21
      name RightHand_dum2
      direction -1.000000 0.000000 0.000000
      length 3.937000
      axis 0.0 0.0 90.0 xyz
   end
   begin
      id 22
      name RightHandThumb1
      direction 0.000000 0.000000 1.000000
      length 3.937000
      axis 0.0 0.0 90.0 xyz
      dof rx rz ry
   end
   begin
      id 23
      name LeftUpLeg
      direction 0.000000 -1.000000 0.000000
      length 16.263388
      axis 0.0 0.0 0.0 xyz
      dof rx ry rz
   end
   begin
      id 24
      name LeftLeg
      direction 0.000000 -1.000000 0.000000
      length 14.328163
      axis 0.0 0.0 0.0 xyz
      dof rx ry rz
   end
   begin
      id 25
      name LeftFoot
      direction 0.000000 -0.258819 0.965926
      length 5.031290
      axis 15.0 0.0 0.0 xyz
      dof rx ry rz
   end
   begin
      id 26
      name LeftToeBase
      direction 0.000000 0.000000 1.000000
      length 2.952750
      axis 0.0 0.0 0.0 xyz
      dof rx ry rz
   end
   begin
      id 27
      name RightUpLeg
      direction 0.000000 -1.000000 0.000000
      length 16.263388
      axis 0.0 0.0 0.0 xyz
      dof rx ry rz
   end
   begin
      id 28
      name RightLeg
      direction 0.000000 -1.000000 0.000000
      length 14.328163
      axis 0.0 0.0 0.0 xyz
      dof rx ry rz
   end
   begin
      id 29
      name RightFoot
      direction 0.000000 -0.258819 0.965926
      length 5.031290
      axis 15.0 0.0 0.0 xyz
      dof rx ry rz
   end
   begin
      id 30
      name RightToeBase
      direction 0.000000 0.000000 1.000000
      length 2.952750
      axis 0.0 0.0 0.0 xyz
      dof rx ry rz
   end
:hierarchy
   begin
      root Spine_dum LeftUpLeg_dum RightUpLeg_dum
      Spine_dum Spine
      LeftUpLeg_dum LeftUpLeg
      RightUpLeg_dum RightUpLeg
      Spine Spine_dum1 Spine_dum2 Spine_dum3
      Spine_dum1 Head
      Spine_dum2 LeftShoulder
      Spine_dum3 RightShoulder
      LeftShoulder LeftArm
      LeftArm LeftForeArm
      LeftForeArm LeftHand
      LeftHand LeftHand_dum1 LeftHand_dum2
      LeftHand_dum1 LeftHandThumb1
      RightShoulder RightArm
      RightArm RightForeArm
      RightForeArm RightHand
      RightHand RightHand_dum1 RightHand_dum2
      RightHand_dum1 RightHandThumb1
      LeftUpLeg LeftLeg
      LeftLeg LeftFoot
      LeftFoot LeftToeBase
      RightUpLeg RightLeg
      RightLeg RightFoot
      RightFoot RightToeBase
   end

# File created by Blade
# Date/Time:  Tue Apr 07 20:41:02 2015
# Frame Rate: 120.000 fps
#------------------------------------------------------
:FULLY-SPECIFIED
:DEGREES
114
root 1.027031 32.738908 1.332701 7.825489 3.588777 0.259935
Spine -12.012143 -7.955873 -1.434705
Head 17.837221 -1.547330 -1.416727
LeftShoulder -19.507194 40.238009 21.957602
LeftArm 54.270864 -54.050177 -50.632115
LeftForeArm 5.612803 -0.000000 -2.290222
LeftHand 4.698583 -0.000000 4.756451
LeftHandThumb1 -26.253704 0.000000 33.147579
RightShoulder -6.901837 5.091656 -31.881856
RightArm 12.677141 14.114572 39.831275
RightForeArm -10.958509 -0.000000 1.034151
RightHand 4.532874 0.000000 2.220113
RightHandThumb1 -24.326973 -0.000000 -32.862282
LeftUpLeg -1.159600 -2.468549 -0.833850
LeftLeg -5.039772 -0.000000 0.000000
LeftFoot -6.423550 9.939903 -15.803640
LeftToeBase -1.714133 -0.000000 0.000000
RightUpLeg -0.829171 -2.402309 0.316043
RightLeg -4.299708 -0.000000 0.000000
RightFoot -7.469527 -7.551144 6.036894
RightToeBase 1.629810 -0.000000 -0.000000
115
root 1.026879 32.739026 1.332231 7.815055 3.581609 0.252854
Spine -12.011361 -7.946320 -1.432343
Head 17.804681 -1.569819 -1.399283
LeftShoulder -19.512976 40.231401 21.962652
LeftArm 54.318884 -54.071956 -50.689434
LeftForeArm 5.649429 -0.000000 -2.281923
LeftHand 4.727325 -0.000000 4.909918
LeftHandThumb1 -26.253704 0.000000 33.147579
RightShoulder -6.928278 5.097684 -31.874431
RightArm 12.679733 14.113220 39.842698
RightForeArm -10.953717 -0.000000 0.997421
RightHand 4.653355 -0.000000 2.241454
RightHandThumb1 -24.326973 -0.000000 -32.862282
LeftUpLeg -1.154571 -2.473606 -0.827338
LeftLeg -5.029212 -0.000000 0.000000
LeftFoot -6.439894 9.949516 -15.809508
LeftToeBase -1.725028 -0.000000 0.000000
RightUpLeg -0.832984 -2.396141 0.323083
RightLeg -4.273646 -0.000000 0.000000
RightFoot -7.482126 -7.553904 6.013731
RightToeBase 1.635461 -0.000000 -0.000000
116
root 1.027183 32.738901 1.332039 7.805112 3.583252 0.249444
Spine -12.012258 -7.948722 -1.424684
Head 17.762117 -1.582505 -1.394468
LeftShoulder -19.531653 40.244502 21.946917
LeftArm 54.365505 -54.082204 -50.726542
LeftForeArm 5.613361 -0.000000 -2.272398
LeftHand 4.738256 0.000000 4.720260
LeftHandThumb1 -26.253704 0.000000 33.147579
RightShoulder -6.950299 5.063844 -31.859835
RightArm 12.722191 14.141872 39.851935
RightForeArm -10.920211 -0.000000 0.965327
RightHand 4.575452 -0.000000 2.259250
RightHandThumb1 -24.326973 -0.000000 -32.862282
LeftUpLeg -1.153903 -2.469706 -0.824752
LeftLeg -5.006044 -0.000000 0.000000
LeftFoot -6.461264 9.936662 -15.792977
LeftToeBase -1.719520 -0.000000 0.000000
RightUpLeg -0.825425 -2.387727 0.325620
RightLeg -4.270212 -0.000000 0.000000
RightFoot -7.477247 -7.566845 6.009276
RightToeBase 1.590563 -0.000000 -0.000000
117
root 1.026941 32.738473 1.332198 7.783829 3.588350 0.240683
Spine -11.997508 -7.956621 -1.412783
Head 17.710205 -1.607403 -1.395095
LeftShoulder -19.534912 40.213055 21.953448
LeftArm 54.354509 -54.069502 -50.730893
LeftForeArm 5.617377 -0.000000 -2.262274
LeftHand 4.757338 -0.000000 4.728756
LeftHandThumb1 -26.253704 0.000000 33.147579
RightShoulder -6.960254 5.086069 -31.849528
RightArm 12.699459 14.120848 39.841419
RightForeArm -10.912589 0.000000 0.952345
RightHand 4.611298 0.000000 2.241408
RightHandThumb1 -24.326973 -0.000000 -32.862282
LeftUpLeg -1.137143 -2.495208 -0.811830
LeftLeg -4.998143 -0.000000 0.000000
LeftFoot -6.481416 9.940203 -15.824846
LeftToeBase -1.720548 -0.000000 0.000000
RightUpLeg -0.807114 -2.391911 0.333534
RightLeg -4.264023 -0.000000 0.000000
RightFoot -7.484506 -7.559764 6.029777
RightToeBase 1.615947 -0.000000 -0.000000
118
root 1.027389 32.738090 1.331346 7.774843 3.593435 0.240381
Spine -11.995044 -7.962374 -1.407228
Head 17.650959 -1.633786 -1.392732
LeftShoulder -19.547918 40.206513 21.937100
LeftArm 54.360459 -54.057844 -50.721341
LeftForeArm 5.593618 0.000000 -2.255032
LeftHand 4.742027 0.000000 4.734285
LeftHandThumb1 -26.253704 0.000000 33.147579
RightShoulder -6.971533 5.088839 -31.836896
RightArm 12.689051 14.125258 39.837405
RightForeArm -10.918533 -0.000000 0.945701
RightHand 4.636310 -0.000000 2.235100
RightHandThumb1 -24.326973 -0.000000 -32.862282
LeftUpLeg -1.136494 -2.519502 -0.810913
LeftLeg -4.983605 -0.000000 0.000000
LeftFoot -6.491835 9.954098 -15.823938
LeftToeBase -1.749454 -0.000000 0.000000
RightUpLeg -0.811162 -2.399989 0.334208
RightLeg -4.240025 -0.000000 0.000000
RightFoot -7.501896 -7.562856 6.007240
RightToeBase 1.622371 -0.000000 -0.000000
119
root 1.027338 32.737726 1.331595 7.757346 3.587852 0.233603
Spine -11.986030 -7.960783 -1.393462
Head 17.597135 -1.656280 -1.392995
LeftShoulder -19.555209 40.204960 21.927934
LeftArm 54.441578 -54.112672 -50.831889
LeftForeArm 5.721084 0.000000 -2.254638
LeftHand 4.801348 0.000000 4.548717
LeftHandThumb1 -26.253704 0.000000 33.147579
RightShoulder -6.991748 5.081375 -31.826606
RightArm 12.703804 14.126254 39.844030
RightForeArm -10.922385 0.000000 0.938469
RightHand 4.637949 -0.000000 2.219651
RightHandThumb1 -24.326973 -0.000000 -32.862282
LeftUpLeg -1.125706 -2.514181 -0.804530
LeftLeg -4.967908 -0.000000 0.000000
LeftFoot -6.510469 9.946401 -15.823768
LeftToeBase -1.745173 -0.000000 0.000000
RightUpLeg -0.797751 -2.378640 0.338852
RightLeg -4.232255 -0.000000 0.000000
RightFoot -7.505813 -7.575252 6.010396
RightToeBase 1.616469 -0.000000 -0.000000
120
root 1.027084 32.737627 1.330350 7.748790 3.583939 0.228048
Spine -11.982325 -7.959445 -1.382225
Head 17.541351 -1.674088 -1.382290
LeftShoulder -19.560176 40.204108 21.912349
LeftArm 54.386112 -54.047802 -50.745815
LeftForeArm 5.577472 -0.000000 -2.263960
LeftHand 4.776679 -0.000000 4.716074
LeftHandThumb1 -26.253704 0.000000 33.147579
RightShoulder -7.005210 5.086348 -31.813716
RightArm 12.699005 14.154185 39.851929
RightForeArm -10.973380 -0.000000 0.945713
RightHand 4.583719 0.000000 2.217211
RightHandThumb1 -24.326973 -0.000000 -32.862282
LeftUpLeg -1.127571 -2.508625 -0.797918
LeftLeg -4.950235 -0.000000 0.000000
LeftFoot -6.518955 9.932082 -15.816430
LeftToeBase -1.798759 -0.000000 0.000000
RightUpLeg -0.797632 -2.368296 0.343995
RightLeg -4.222249 -0.000000 0.000000
RightFoot -7.509563 -7.581414 6.021841
RightToeBase 1.597013 -0.000000 -0.000000
121
root 1.026463 32.737234 1.330906 7.729092 3.587764 0.219980
Spine -11.969917 -7.976116 -1.361667
Head 17.483196 -1.663944 -1.391129
LeftShoulder -19.582239 40.221820 21.876557
LeftArm 54.448071 -54.086653 -50.821936
LeftForeArm 5.668587 -0.000000 -2.257164
LeftHand 4.831465 -0.000000 4.624862
LeftHandThumb1 -26.253704 0.000000 33.147579
RightShoulder -7.013817 5.104847 -31.817695
RightArm 12.682466 14.155351 39.874230
RightForeArm -11.011655 -0.000000 0.961515
RightHand 4.578255 -0.000000 2.258823
RightHandThumb1 -24.326973 -0.000000 -32.862282
LeftUpLeg -1.108665 -2.534111 -0.787760
LeftLeg -4.946857 -0.000000 0.000000
LeftFoot -6.532434 9.945123 -15.836795
LeftToeBase -1.770786 -0.000000 0.000000
RightUpLeg -0.775951 -2.368274 0.352873
RightLeg -4.226576 -0.000000 0.000000
RightFoot -7.498549 -7.586627 6.004032
RightToeBase 1.572023 -0.000000 -0.000000
122
root 1.029224 32.737040 1.333055 7.677397 3.613613 0.226519
Spine -11.920896 -8.004279 -1.351893
Head 17.433624 -1.678162 -1.411242
LeftShoulder -19.565104 40.205799 21.864855
LeftArm 54.424338 -54.082087 -50.828856
LeftForeArm 5.757197 -0.000000 -2.251336
LeftHand 4.878356 -0.000000 4.800003
LeftHandThumb1 -26.253704 0.000000 33.147579
RightShoulder -7.036536 5.109235 -31.825536
RightArm 12.679435 14.113697 39.885413
RightForeArm -10.976817 -0.000000 0.985289
RightHand 4.575097 -0.000000 2.313286
RightHandThumb1 -24.326973 -0.000000 -32.862282
LeftUpLeg -1.049309 -2.587255 -0.796448
LeftLeg -4.956627 -0.000000 0.000000
LeftFoot -6.536127 9.969517 -15.837751
LeftToeBase -1.796442 -0.000000 0.000000
RightUpLeg -0.713070 -2.405576 0.339312
RightLeg -4.233806 -0.000000 0.000000
RightFoot -7.507224 -7.557549 6.028622
RightToeBase 1.592440 -0.000000 -0.000000
123
root 1.030013 32.736683 1.333206 7.666126 3.623343 0.230092
Spine -11.918247 -8.042806 -1.332099
Head 17.381880 -1.659710 -1.433038
LeftShoulder -19.629587 40.234991 21.804236
LeftArm 54.508331 -54.055128 -50.887653
LeftForeArm 5.746078 -0.000000 -2.264929
LeftHand 4.885443 -0.000000 4.739353
LeftHandThumb1 -26.253704 0.000000 33.147579
RightShoulder -7.028529 5.092131 -31.832947
RightArm 12.697716 14.117274 39.915363
RightForeArm -10.943976 -0.000000 0.989953
RightHand 4.572817 -0.000000 2.298092
RightHandThumb1 -24.326973 -0.000000 -32.862282
LeftUpLeg -1.040062 -2.595647 -0.798288
LeftLeg -4.952023 -0.000000 0.000000
LeftFoot -6.538742 9.962756 -15.831106
LeftToeBase -1.768043 -0.000000 0.000000
RightUpLeg -0.701271 -2.402614 0.335727
RightLeg -4.231692 -0.000000 0.000000
RightFoot -7.513999 -7.576549 6.026017
RightToeBase 1.596466 -0.000000 -0.000000
124
root 1.027995 32.736239 1.330948 7.688762 3.581616 0.231277
Spine -11.946251 -8.013896 -1.343031
Head 17.321198 -1.651629 -1.387306
LeftShoulder -19.633421 40.238858 21.822285
LeftArm 54.549579 -54.038492 -50.959880
LeftForeArm 5.808014 -0.000000 -2.253481
LeftHand 4.825998 0.000000 4.730944
LeftHandThumb1 -26.253704 0.000000 33.147579
RightShoulder -7.044820 5.086387 -31.795218
RightArm 12.714731 14.117502 39.916816
RightForeArm -10.943292 -0.000000 0.965122
RightHand 4.783355 -0.000000 2.243860
RightHandThumb1 -24.326973 -0.000000 -32.862282
LeftUpLeg -1.064171 -2.568343 -0.797226
LeftLeg -4.948193 -0.000000 0.000000
LeftFoot -6.547544 9.960803 -15.845242
LeftToeBase -1.752787 -0.000000 0.000000
RightUpLeg -0.737906 -2.346536 0.335017
RightLeg -4.219090 -0.000000 0.000000
RightFoot -7.516766 -7.601648 6.004763
RightToeBase 1.579376 -0.000000 -0.000000
125
root 1.027035 32.736131 1.330088 7.683188 3.574307 0.232763
Spine -11.948874 -8.033740 -1.332478
Head 17.280332 -1.634450 -1.401715
LeftShoulder -19.640958 40.224721 21.804854
LeftArm 54.500475 -53.987082 -50.913620
LeftForeArm 5.764462 -0.000000 -2.265092
LeftHand 4.797113 -0.000000 4.798127
LeftHandThumb1 -26.253704 0.000000 33.147579
RightShoulder -7.024918 5.115382 -31.794461
RightArm 12.677194 14.103341 39.934198
RightForeArm -10.925194 0.000000 0.992788
RightHand 4.732612 -0.000000 2.264065
RightHandThumb1 -24.326973 -0.000000 -32.862282
LeftUpLeg -1.059483 -2.574716 -0.795653
LeftLeg -4.947093 -0.000000 0.000000
LeftFoot -6.558731 9.959441 -15.862395
LeftToeBase -1.768970 -0.000000 0.000000
RightUpLeg -0.730567 -2.325742 0.333601
RightLeg -4.226538 -0.000000 0.000000
RightFoot -7.515562 -7.617172 5.986528
RightToeBase 1.594957 -0.000000 -0.000000
126
root 1.026993 32.736071 1.328947 7.678122 3.570068 0.237371
Spine -11.949501 -8.055547 -1.320858
Head 17.236415 -1.605221 -1.411751
LeftShoulder -19.641701 40.191035 21.785475
LeftArm 54.427935 -53.945956 -50.862267
LeftForeArm 5.776931 -0.000000 -2.259462
LeftHand 4.802106 -0.000000 4.766832
LeftHandThumb1 -26.253704 0.000000 33.147579
RightShoulder -7.003330 5.116061 -31.778347
RightArm 12.668469 14.103519 39.935768
RightForeArm -10.949353 0.000000 1.010042
RightHand 4.495234 -0.000000 2.326892
RightHandThumb1 -24.326973 -0.000000 -32.862282
LeftUpLeg -1.057761 -2.572024 -0.799875
LeftLeg -4.944885 -0.000000 0.000000
LeftFoot -6.558434 9.955090 -15.872944
LeftToeBase -1.750350 -0.000000 0.000000
RightUpLeg -0.732858 -2.332745 0.329272
RightLeg -4.215109 -0.000000 0.000000
RightFoot -7.517697 -7.613560 5.978738
RightToeBase 1.574825 -0.000000 -0.000000
